<?xml version="1.0" encoding="utf-8"?>

<svg version="1.1" id="Layer_1" xmlns="http://www.w3.org/2000/svg" xmlns:xlink="http://www.w3.org/1999/xlink" x="0px" y="0px"
	 viewBox="0 0 20 20" xml:space="preserve">
<path fill="#ffffff" d="M10,0.8c-5.2,0-9.4,4.2-9.4,9.4c0,4.2,2.7,7.7,6.4,8.9c0.5,0.1,0.6-0.2,0.6-0.5c0-0.2,0-1,0-1.8
	c-2.6,0.6-3.2-1.1-3.2-1.1c-0.4-1.1-1-1.4-1-1.4c-0.9-0.6,0.1-0.6,0.1-0.6c0.9,0.1,1.4,1,1.4,1c0.8,1.4,2.2,1,2.7,0.8
	c0.1-0.6,0.3-1,0.6-1.3C6.2,14.2,4,13.3,4,9.7c0-1,0.4-1.9,1-2.5C4.9,7,4.5,6,5.1,4.7c0,0,0.8-0.3,2.6,1C8.4,5.5,9.2,5.4,10,5.4
	c0.8,0,1.6,0.1,2.4,0.3c1.8-1.2,2.6-1,2.6-1C15.5,6,15.1,7,15,7.2c0.6,0.7,1,1.5,1,2.5c0,3.6-2.2,4.4-4.3,4.6
	c0.3,0.3,0.6,0.9,0.6,1.7c0,1.3,0,2.3,0,2.6c0,0.3,0.2,0.5,0.6,0.5c3.7-1.2,6.4-4.8,6.4-8.9C19.4,5,15.2,0.8,10,0.8z M4.1,14.2
	c0,0-0.1,0.1-0.2,0c-0.1,0-0.1-0.1-0.1-0.1c0,0,0.1-0.1,0.2,0C4.1,14.1,4.1,14.2,4.1,14.2z M4.6,14.6c0,0-0.1,0-0.2,0
	c-0.1-0.1-0.1-0.2,0-0.2c0,0,0.1,0,0.2,0C4.6,14.5,4.6,14.6,4.6,14.6z M4.9,15.2c-0.1,0-0.2,0-0.2-0.1c-0.1-0.1-0.1-0.2,0-0.2
	c0.1,0,0.2,0,0.2,0.1C4.9,15,4.9,15.1,4.9,15.2L4.9,15.2z M5.4,15.8c-0.1,0.1-0.2,0-0.2,0c-0.1-0.1-0.1-0.2-0.1-0.2
	c0.1-0.1,0.2,0,0.2,0C5.5,15.6,5.5,15.7,5.4,15.8z M6.1,16c0,0.1-0.1,0.1-0.2,0.1c-0.1,0-0.2-0.1-0.2-0.2c0-0.1,0.1-0.1,0.2-0.1
	C6.1,15.8,6.1,15.9,6.1,16L6.1,16z M6.9,16.1c0,0.1-0.1,0.1-0.2,0.1c-0.1,0-0.2-0.1-0.2-0.1c0-0.1,0.1-0.1,0.2-0.1
	C6.8,15.9,6.9,16,6.9,16.1z M7.7,16c0,0.1-0.1,0.2-0.2,0.2c-0.1,0-0.2,0-0.2-0.1c0-0.1,0.1-0.2,0.2-0.2C7.6,15.9,7.7,16,7.7,16z"/>
</svg>
