<svg xmlns="http://www.w3.org/2000/svg" viewBox="0 0 426.06 200"><defs><style>.cls-1{fill:#6d6e71;}.cls-2{fill:#fbb040;}.cls-3{fill:#f1f2f2;}</style></defs><g id="backgrounds"><rect class="cls-1" width="426.06" height="199.19"/></g><g id="logo-dark"><path class="cls-2" d="M349.09,144.08a7.35,7.35,0,1,1,0-14.7,48.11,48.11,0,1,0,0-96.22,7.35,7.35,0,1,1,0-14.7,62.81,62.81,0,1,1,0,125.62Z"/><path class="cls-2" d="M349.09,117.55a7.35,7.35,0,1,1,0-14.7,21.58,21.58,0,1,0,0-43.16,7.35,7.35,0,1,1,0-14.7,36.28,36.28,0,1,1,0,72.56Z"/><circle class="cls-2" cx="349.09" cy="81.27" r="7.93"/><path class="cls-3" d="M326.39,33.16H281.9a7.35,7.35,0,1,1,0-14.7h44.49a7.35,7.35,0,1,1,0,14.7Z"/><path class="cls-3" d="M281.89,59.71a8.8,8.8,0,0,1-1.44-.15,9.34,9.34,0,0,1-1.36-.44,7.75,7.75,0,0,1-1.28-.66,8.37,8.37,0,0,1-1.1-.92,7.3,7.3,0,0,1,0-10.39,7.59,7.59,0,0,1,10.39,0,7.33,7.33,0,0,1,2.13,5.18,7.42,7.42,0,0,1-2.13,5.21,8.8,8.8,0,0,1-1.14.92,5.92,5.92,0,0,1-1.25.66,8,8,0,0,1-1.39.44A8.35,8.35,0,0,1,281.89,59.71Z"/><path class="cls-3" d="M326.39,59.69H299.57a7.35,7.35,0,0,1,0-14.7h26.82a7.35,7.35,0,1,1,0,14.7Z"/><path class="cls-3" d="M326.39,88.62H281.9a7.35,7.35,0,1,1,0-14.7h44.49a7.35,7.35,0,1,1,0,14.7Z"/><path class="cls-3" d="M326.41,117.53a7.43,7.43,0,0,1-5.22-2.13,6.33,6.33,0,0,1-.91-1.14,6.45,6.45,0,0,1-.67-1.25,9,9,0,0,1-.44-1.39,9.49,9.49,0,0,1-.14-1.43,7.41,7.41,0,0,1,2.16-5.18,7.65,7.65,0,0,1,10.4,0,7.33,7.33,0,0,1-5.18,12.52Z"/><path class="cls-3" d="M308.72,117.55H281.9a7.35,7.35,0,1,1,0-14.7h26.82a7.35,7.35,0,0,1,0,14.7Z"/><path class="cls-3" d="M326.39,144.08H281.9a7.35,7.35,0,1,1,0-14.7h44.49a7.35,7.35,0,1,1,0,14.7Z"/><path class="cls-2" d="M53.7,69.5l-2.65-7H28.45L25.8,69.65a25.22,25.22,0,0,1-2.65,5.63,4.22,4.22,0,0,1-3.6,1.46,5.32,5.32,0,0,1-3.76-1.55,4.79,4.79,0,0,1-1.63-3.53,8,8,0,0,1,.38-2.35c.25-.81.67-1.93,1.25-3.37L30,29.85l1.46-3.73a18.43,18.43,0,0,1,1.82-3.62,7.3,7.3,0,0,1,2.54-2.33,7.71,7.71,0,0,1,3.88-.9,7.83,7.83,0,0,1,3.93.9,7.58,7.58,0,0,1,2.54,2.29,16.75,16.75,0,0,1,1.63,3c.44,1.08,1,2.51,1.68,4.31L64,65.63a18,18,0,0,1,1.71,6,4.92,4.92,0,0,1-1.61,3.54,5.28,5.28,0,0,1-3.89,1.61A5.11,5.11,0,0,1,58,76.27,4.7,4.7,0,0,1,56.35,75,11.74,11.74,0,0,1,55,72.48C54.48,71.35,54.05,70.36,53.7,69.5ZM31.41,54.07H48L39.64,31.14Z"/><path class="cls-2" d="M71.1,52.82V26.1A7.46,7.46,0,0,1,72.63,21a5.18,5.18,0,0,1,4-1.71A5.28,5.28,0,0,1,80.82,21a7.41,7.41,0,0,1,1.54,5.12V53.43a24.81,24.81,0,0,0,1,7.79,9,9,0,0,0,3.7,4.85,13.54,13.54,0,0,0,7.43,1.73q6.59,0,9.32-3.51t2.73-10.63V26.1A7.51,7.51,0,0,1,108.1,21a5.19,5.19,0,0,1,4.05-1.69A5.39,5.39,0,0,1,116.27,21a7.37,7.37,0,0,1,1.57,5.14V52.82a39.37,39.37,0,0,1-1.27,10.88,16.83,16.83,0,0,1-4.8,7.66,18.6,18.6,0,0,1-7,4.09,30.82,30.82,0,0,1-9.4,1.29,38.83,38.83,0,0,1-11-1.38,17.54,17.54,0,0,1-7.54-4.29,17.18,17.18,0,0,1-4.29-7.42A37.82,37.82,0,0,1,71.1,52.82Z"/><path class="cls-2" d="M137,20.22h14.67a39.92,39.92,0,0,1,9.82,1.06,18.18,18.18,0,0,1,7.43,4q8.68,7.44,8.68,22.6a44.37,44.37,0,0,1-.87,9.13A27,27,0,0,1,174,64.44a23.17,23.17,0,0,1-4.67,5.93,19.3,19.3,0,0,1-4.89,3.23,22.57,22.57,0,0,1-5.7,1.7,43.35,43.35,0,0,1-6.88.49H137.21a9.21,9.21,0,0,1-4.63-.92,4.33,4.33,0,0,1-2-2.62,16.38,16.38,0,0,1-.48-4.38V27.12q0-3.63,1.63-5.27C132.8,20.77,134.56,20.22,137,20.22Zm4.36,8.91V66.85h8.53c1.87,0,3.33,0,4.4-.15a14,14,0,0,0,3.3-.76,9,9,0,0,0,3-1.71q5.65-4.77,5.65-16.45,0-8.22-2.48-12.32a11.1,11.1,0,0,0-6.12-5.21,30.09,30.09,0,0,0-8.8-1.12Z"/><path class="cls-2" d="M187.93,69.88V26.1A7.41,7.41,0,0,1,189.48,21a5.19,5.19,0,0,1,4-1.71A5.38,5.38,0,0,1,197.61,21a7.32,7.32,0,0,1,1.58,5.14V69.88A7.39,7.39,0,0,1,197.61,75a5.35,5.35,0,0,1-4.11,1.7,5.17,5.17,0,0,1-4-1.72A7.4,7.4,0,0,1,187.93,69.88Z"/><path class="cls-2" d="M236.22,19.27a29.65,29.65,0,0,1,14.84,3.51,22.73,22.73,0,0,1,9.38,10,33.88,33.88,0,0,1,3.19,15.18,37.26,37.26,0,0,1-1.74,11.72,25.41,25.41,0,0,1-5.24,9.13,22.75,22.75,0,0,1-8.56,5.91,33.8,33.8,0,0,1-23.32,0,23.19,23.19,0,0,1-8.6-5.93A25.35,25.35,0,0,1,211,59.49a37,37,0,0,1-1.77-11.63A36.06,36.06,0,0,1,211,36.11a25.14,25.14,0,0,1,5.33-9.1,22.89,22.89,0,0,1,8.49-5.74A30.53,30.53,0,0,1,236.22,19.27Zm16,28.59a26.15,26.15,0,0,0-2-10.58,14.77,14.77,0,0,0-5.63-6.77,15.56,15.56,0,0,0-8.4-2.29A15.33,15.33,0,0,0,230,29.49a13.79,13.79,0,0,0-4.92,3.7,17.54,17.54,0,0,0-3.26,6.19,27.93,27.93,0,0,0-1.2,8.48,28.51,28.51,0,0,0,1.2,8.56,17.45,17.45,0,0,0,3.37,6.35,14.29,14.29,0,0,0,5,3.78,15.78,15.78,0,0,0,14.14-.92A15,15,0,0,0,250.08,59,25.88,25.88,0,0,0,252.22,47.86Z"/><path class="cls-3" d="M113.63,98.51H101.35v40.37q0,3.5-1.56,5.17a5.18,5.18,0,0,1-4,1.69A5.29,5.29,0,0,1,91.7,144a7.35,7.35,0,0,1-1.57-5.15V98.51H77.85a6.21,6.21,0,0,1-4.29-1.27,4.34,4.34,0,0,1-1.4-3.36,4.27,4.27,0,0,1,1.46-3.41,6.34,6.34,0,0,1,4.23-1.25h35.78A6.29,6.29,0,0,1,118,90.51a4.32,4.32,0,0,1,1.42,3.37A4.27,4.27,0,0,1,118,97.24,6.35,6.35,0,0,1,113.63,98.51Z"/><path class="cls-3" d="M162.68,97.9H137.32v13.65h23.35a5.62,5.62,0,0,1,3.85,1.15,3.94,3.94,0,0,1,1.27,3.06,4.11,4.11,0,0,1-1.25,3.09,5.45,5.45,0,0,1-3.87,1.19H137.32v15.81h26.23a5.74,5.74,0,0,1,4,1.23,4.22,4.22,0,0,1,1.35,3.28,4.13,4.13,0,0,1-1.35,3.2,5.74,5.74,0,0,1-4,1.23H133q-3.68,0-5.29-1.63t-1.61-5.27V96.12a9.35,9.35,0,0,1,.72-4A4.52,4.52,0,0,1,129,89.92a9.58,9.58,0,0,1,3.92-.7h29.72a5.76,5.76,0,0,1,4,1.2A4,4,0,0,1,168,93.54a4.1,4.1,0,0,1-1.31,3.17A5.81,5.81,0,0,1,162.68,97.9Z"/><path class="cls-3" d="M175.8,134l12.43-18.16L177.77,99.68a31,31,0,0,1-2.22-4,8.15,8.15,0,0,1-.74-3.24,3.8,3.8,0,0,1,1.42-2.87,5.07,5.07,0,0,1,3.47-1.27,4.8,4.8,0,0,1,3.66,1.39A34.77,34.77,0,0,1,187,94.79l8.34,13.5,8.91-13.5,1.87-2.91a15.42,15.42,0,0,1,1.5-2,5,5,0,0,1,1.61-1.2,5.13,5.13,0,0,1,2.07-.4,4.89,4.89,0,0,1,3.47,1.27,4,4,0,0,1,1.34,3q0,2.53-2.92,6.9l-10.95,16.37L214,134a30.18,30.18,0,0,1,2.31,4,7.17,7.17,0,0,1,.72,3,4.78,4.78,0,0,1-.64,2.42,4.71,4.71,0,0,1-1.82,1.75,5.56,5.56,0,0,1-2.66.64,5.13,5.13,0,0,1-2.69-.66,5.65,5.65,0,0,1-1.78-1.65c-.46-.66-1.3-1.94-2.54-3.83l-9.78-15.39-10.39,15.84c-.81,1.27-1.38,2.15-1.72,2.66a10.26,10.26,0,0,1-1.23,1.48,5.15,5.15,0,0,1-1.71,1.13,5.88,5.88,0,0,1-2.31.42,4.78,4.78,0,0,1-3.39-1.25,4.72,4.72,0,0,1-1.35-3.64Q173,138,175.8,134Z"/><path class="cls-3" d="M260.82,98.51H248.54v40.37q0,3.5-1.55,5.17a5.21,5.21,0,0,1-4,1.69,5.29,5.29,0,0,1-4.08-1.71,7.35,7.35,0,0,1-1.57-5.15V98.51H225a6.23,6.23,0,0,1-4.29-1.27,4.34,4.34,0,0,1-1.4-3.36,4.27,4.27,0,0,1,1.46-3.41A6.34,6.34,0,0,1,225,89.22h35.78a6.27,6.27,0,0,1,4.34,1.29,4.32,4.32,0,0,1,1.42,3.37,4.27,4.27,0,0,1-1.44,3.36A6.35,6.35,0,0,1,260.82,98.51Z"/><path class="cls-2" d="M284.44,171.4h-4.63v7.06a3.3,3.3,0,0,1-.72,2.3,2.32,2.32,0,0,1-1.8.78,2.38,2.38,0,0,1-1.84-.77,3.34,3.34,0,0,1-.69-2.28V159.27a3.16,3.16,0,0,1,.76-2.39,3.51,3.51,0,0,1,2.43-.71h6.49a17.22,17.22,0,0,1,4.42.44,6.84,6.84,0,0,1,2.65,1.41,6.5,6.5,0,0,1,1.69,2.42,8.63,8.63,0,0,1,.58,3.22,7.11,7.11,0,0,1-2.35,5.77Q289.08,171.4,284.44,171.4ZM283.21,160h-3.4v7.63h3.4a10.17,10.17,0,0,0,3-.38A3.52,3.52,0,0,0,288,166a3.66,3.66,0,0,0,.63-2.23,3.81,3.81,0,0,0-1-2.69C287,160.33,285.47,160,283.21,160Z"/><path class="cls-2" d="M309,155.74a13.35,13.35,0,0,1,6.67,1.58,10.28,10.28,0,0,1,4.21,4.47,15.33,15.33,0,0,1,1.42,6.82,16.63,16.63,0,0,1-.78,5.25,11.3,11.3,0,0,1-2.35,4.11,10.25,10.25,0,0,1-3.84,2.65,15.12,15.12,0,0,1-10.47,0,10.22,10.22,0,0,1-3.86-2.66,11.47,11.47,0,0,1-2.34-4.13,17,17,0,0,1-.79-5.23,16.13,16.13,0,0,1,.83-5.27,11.3,11.3,0,0,1,2.39-4.09,10.24,10.24,0,0,1,3.81-2.57A13.64,13.64,0,0,1,309,155.74Zm7.18,12.83a11.74,11.74,0,0,0-.88-4.75,6.62,6.62,0,0,0-2.53-3,7.31,7.31,0,0,0-6.57-.46A6.17,6.17,0,0,0,304,162a7.86,7.86,0,0,0-1.46,2.78,12.5,12.5,0,0,0-.54,3.8,12.84,12.84,0,0,0,.54,3.85,8,8,0,0,0,1.51,2.85,6.39,6.39,0,0,0,2.25,1.69,6.67,6.67,0,0,0,2.78.56,6.84,6.84,0,0,0,3.57-1,6.66,6.66,0,0,0,2.58-3A11.59,11.59,0,0,0,316.15,168.57Z"/><path class="cls-2" d="M332.39,170.44h-1.77v8a3.36,3.36,0,0,1-.7,2.33,2.38,2.38,0,0,1-1.82.75,2.31,2.31,0,0,1-1.87-.78,3.45,3.45,0,0,1-.67-2.3V159.27a3.25,3.25,0,0,1,.74-2.37,3.21,3.21,0,0,1,2.36-.73h8.22a26.72,26.72,0,0,1,2.91.14,7.67,7.67,0,0,1,2.18.59,6.35,6.35,0,0,1,2.07,1.41,6.27,6.27,0,0,1,1.37,2.14,7.16,7.16,0,0,1,.47,2.58,6.21,6.21,0,0,1-1.58,4.45,9,9,0,0,1-4.77,2.37A9.16,9.16,0,0,1,342.1,172a21,21,0,0,1,2.19,3,22.22,22.22,0,0,1,1.5,2.84,5.77,5.77,0,0,1,.53,1.74,1.77,1.77,0,0,1-.31,1,2.21,2.21,0,0,1-.86.77,2.69,2.69,0,0,1-1.26.28,2.41,2.41,0,0,1-1.43-.4,4,4,0,0,1-1-1c-.27-.41-.65-1-1.13-1.81l-2-3.37a19.49,19.49,0,0,0-1.95-2.82,4.71,4.71,0,0,0-1.75-1.33A5.93,5.93,0,0,0,332.39,170.44ZM335.28,160h-4.66v6.86h4.52a12.2,12.2,0,0,0,3.07-.32,3.48,3.48,0,0,0,1.89-1.07,3.05,3.05,0,0,0,.66-2.08,3.25,3.25,0,0,0-.53-1.83,3.16,3.16,0,0,0-1.46-1.18A10.47,10.47,0,0,0,335.28,160Z"/><path class="cls-2" d="M365.12,160.34h-5.51v18.12a3.3,3.3,0,0,1-.7,2.32,2.31,2.31,0,0,1-1.8.76,2.38,2.38,0,0,1-1.83-.77,3.31,3.31,0,0,1-.71-2.31V160.34h-5.51a2.79,2.79,0,0,1-1.92-.57,2.13,2.13,0,0,1,0-3,2.87,2.87,0,0,1,1.9-.56h16.06a2.79,2.79,0,0,1,1.95.58,2.09,2.09,0,0,1,0,3A2.85,2.85,0,0,1,365.12,160.34Z"/><path class="cls-2" d="M384.47,178.29l-1.19-3.13H373.14l-1.19,3.2a11.79,11.79,0,0,1-1.19,2.52,1.89,1.89,0,0,1-1.62.66,2.32,2.32,0,0,1-1.68-.7,2.12,2.12,0,0,1-.74-1.58,3.71,3.71,0,0,1,.17-1.06c.12-.36.3-.86.57-1.51l6.38-16.2c.18-.46.4-1,.65-1.68a8.69,8.69,0,0,1,.82-1.62,3.39,3.39,0,0,1,1.14-1.05,3.55,3.55,0,0,1,1.74-.4,3.61,3.61,0,0,1,1.76.4,3.43,3.43,0,0,1,1.14,1,6.57,6.57,0,0,1,.73,1.36c.2.48.46,1.12.76,1.93l6.52,16.09a8.11,8.11,0,0,1,.76,2.67,2.25,2.25,0,0,1-.72,1.6,2.37,2.37,0,0,1-1.74.72,2.26,2.26,0,0,1-1-.21,2.17,2.17,0,0,1-.72-.58,5.51,5.51,0,0,1-.62-1.13C384.82,179.12,384.63,178.67,384.47,178.29Zm-10-6.93h7.45l-3.76-10.29Z"/><path class="cls-2" d="M398.52,158.81V177h10.25a2.7,2.7,0,0,1,1.88.6,1.93,1.93,0,0,1,.65,1.49,1.86,1.86,0,0,1-.65,1.49,2.76,2.76,0,0,1-1.88.57h-12.2a2.64,2.64,0,0,1-3.1-3.09V158.81a3.35,3.35,0,0,1,.69-2.3,2.32,2.32,0,0,1,1.81-.77,2.43,2.43,0,0,1,1.85.76A3.29,3.29,0,0,1,398.52,158.81Z"/></g></svg>